<svg width="200" height="30" viewBox="0 0 200 30" fill="none" xmlns="http://www.w3.org/2000/svg">
<path d="M7.79947 5.13369V4.63369H7.29947H0.5V1.50267H18.1898V4.63369H11.3904H10.8904V5.13369V28.5775H7.79947V5.13369ZM22.9813 15.9037H22.4185L22.4848 16.4627C22.7792 18.9447 23.9151 21.2131 25.6759 22.9739C27.8142 25.1122 30.6281 26.2888 33.6497 26.2888C36.6713 26.2888 39.4853 25.1122 41.6236 22.9739L41.6293 22.9682L41.6348 22.9623C42.1786 22.3823 42.6999 21.7602 43.1351 21.0972L46.6545 21.3775C44.3074 26.1907 39.3698 29.5 33.6497 29.5C25.6237 29.5 19.1497 23.026 19.1497 15C19.1497 6.974 25.6237 0.5 33.6497 0.5C41.6757 0.5 48.1497 6.974 48.1497 15C48.1497 15.3015 48.1331 15.6052 48.1103 15.9037H22.9813ZM22.7388 12.1439L22.5711 12.7727H23.2219H44.0775H44.7283L44.5607 12.1439C44.0576 10.2576 43.0519 8.45446 41.6236 7.02612C39.4853 4.88783 36.6713 3.71123 33.6497 3.71123C30.6281 3.71123 27.8142 4.88783 25.6759 7.02612C24.2475 8.45446 23.2418 10.2576 22.7388 12.1439ZM55.4278 15.6631H54.9278V16.1631V28.5775H51.7968V1.50267H54.9278V12.0321V12.5321H55.4278H71.9118H72.4118V12.0321V1.50267H75.5428V28.5775H72.4118V16.1631V15.6631H71.9118H55.4278ZM83.3636 4.77273V28.5775H79.9519V1.50267H90.1953L92.9123 25.4041L92.9627 25.8476H93.4091H96.4572H96.958L96.9572 25.3468L96.9179 1.50267H100.209V28.5775H89.9672L87.3687 4.71859L87.3202 4.27273H86.8717H83.8636H83.3636V4.77273ZM111.618 4.63369H111.118V5.13369V25.1471V25.6471H111.618H114.767V28.5775H104.417V25.6471H107.607H108.107V25.1471V5.13369V4.63369H107.607H104.417V1.50267H114.767V4.63369H111.618ZM144.487 28.5832L123.214 18.9562L122.508 18.6367V19.4118V28.5775H119.377V1.50267H122.508V10.6283V11.4047L123.215 11.0836L144.487 1.4181V5.01282L123.603 14.5451L122.604 15.0009L123.603 15.4552L144.487 24.9476V28.5832ZM162.874 25.4465H163.374V24.9465V1.50267H166.505V28.5775H149.056V1.50267H152.147V24.9465V25.4465H152.647H162.874ZM174.326 4.69251V28.5775H171.075V1.50267H180.674L183.233 25.2808L183.281 25.7273H183.73H186.056H186.505L186.553 25.2808L189.112 1.50267H198.711V28.5775H195.301L195.38 4.77438L195.381 4.27273H194.88H192.513H192.069L192.017 4.71374L189.182 28.5775H180.486L177.729 4.63532L177.678 4.19251H177.233H174.826H174.326V4.69251Z" fill="black" stroke="black"/>
</svg>
