<svg width="147" height="22" viewBox="0 0 147 22" fill="none" xmlns="http://www.w3.org/2000/svg">
<path fill-rule="evenodd" clip-rule="evenodd" d="M13.7059 3.76471V0.735294H0V3.76471H5.35294V21.3235H8.35294V3.76471H13.7059ZM34.7647 15.3529C33.0882 19.2647 29.2059 22 24.6765 22C18.5882 22 13.6765 17.0882 13.6765 11C13.6765 4.91176 18.5882 0 24.6765 0C30.7647 0 35.6765 4.91176 35.6765 11C35.6765 11.3529 35.6471 11.7059 35.6176 12.0294H16.8529C17.0588 13.7647 17.8529 15.3529 19.0882 16.5882C20.5882 18.0882 22.5588 18.9118 24.6765 18.9118C26.7941 18.9118 28.7647 18.0882 30.2647 16.5882C30.7059 16.1176 31.1176 15.6176 31.4412 15.0882L34.7647 15.3529ZM24.6765 3.08824C22.5588 3.08824 20.5882 3.91176 19.0882 5.41176C18.0882 6.41176 17.3824 7.67647 17.0294 9H32.3235C31.9706 7.67647 31.2647 6.41176 30.2647 5.41176C28.7647 3.91176 26.7941 3.08824 24.6765 3.08824ZM40.6471 11.8529H52.7353V21.3235H55.7647V0.735294H52.7353V8.82353H40.6471V0.735294H37.6176V21.3235H40.6471V11.8529ZM65.6471 21.3235H73.8529V0.735294H70.7059L70.7353 18.5882H68.5L66.4706 0.735294H58.2647V21.3235H61.5V3.5H63.7059L65.6471 21.3235ZM81.8529 3.76471H84.5294V0.735294H76.2059V3.76471H78.9118V18.4412H76.2059V21.3235H84.5294V18.4412H81.8529V3.76471ZM106.324 0.470588L90.2059 7.79412V0.735294H87.1765V21.3235H90.2059V14.2353L106.324 21.5294V18.0588L90.7941 11L106.324 3.91176V0.470588ZM119.441 0.735294V18.2941H111.941V0.735294H108.941V21.3235H122.471V0.735294H119.441ZM132.029 21.3235H139.059L141.176 3.5H142.912L142.853 21.3235H146.088V0.735294H138.353L136.441 18.5H134.735L132.824 0.735294H125.088V21.3235H128.206V3.44118H129.971L132.029 21.3235Z" fill="white"/>
</svg>
